<?xml version="1.0" standalone="no"?>
<!DOCTYPE svg PUBLIC "-//W3C//DTD SVG 20010904//EN"
 "http://www.w3.org/TR/2001/REC-SVG-20010904/DTD/svg10.dtd">
<svg version="1.0" xmlns="http://www.w3.org/2000/svg"
 width="1000.000000pt" height="1000.000000pt" viewBox="0 0 1000.000000 1000.000000"
 preserveAspectRatio="xMidYMid meet">

<g transform="translate(0.000000,1000.000000) scale(0.100000,-0.100000)"
fill="#000000" stroke="none">
<path d="M4707 8413 c-19 -32 -88 -150 -152 -263 -148 -256 -264 -458 -387
-670 -218 -378 -1145 -1983 -1270 -2200 -75 -129 -255 -442 -401 -695 l-266
-460 1255 -3 c1189 -2 1255 -3 1250 -20 -5 -15 -132 -532 -331 -1347 -29 -121
-103 -422 -164 -670 -60 -247 -137 -562 -171 -700 -33 -137 -63 -258 -66 -269
-10 -31 12 -10 75 72 33 42 128 165 213 272 1066 1352 1722 2183 1857 2355 91
116 193 244 226 286 33 42 109 138 169 215 61 76 174 220 252 319 79 99 206
261 284 360 78 99 163 207 189 240 26 33 92 116 146 185 54 69 121 154 150
190 151 192 195 248 195 254 0 3 -561 6 -1246 6 -1183 0 -1246 1 -1239 18 5
15 458 804 655 1142 37 63 128 221 202 350 133 230 616 1068 625 1083 2 4
-450 7 -1006 7 l-1010 0 -34 -57z"/>
</g>
</svg>
